<mxfile host="app.diagrams.net" modified="2023-04-30T12:10:49.724Z" agent="Mozilla/5.0 (Windows NT 10.0; Win64; x64) AppleWebKit/537.36 (KHTML, like Gecko) Chrome/112.0.0.0 Safari/537.36" version="21.2.3" etag="ajK4W9W1t4JR62Qwkq09" type="github">
  <diagram name="Page-1" id="x3WW3A2NA5ecLm-U_PFt">
    <mxGraphModel>
      <root>
        <mxCell id="0" />
        <mxCell id="1" parent="0" />
      </root>
    </mxGraphModel>
  </diagram>
</mxfile>
